<svg width="64" height="64" viewBox="0 0 64 64" fill="none" xmlns="http://www.w3.org/2000/svg">
<circle cx="32" cy="32" r="32" fill="#FF8E00"/>
<path d="M40.1185 30.7224C41.952 29.7879 43.098 28.1414 42.829 25.4004C42.4675 21.6534 39.2325 20.3989 35.149 20.0429L35.147 15.5139C35.148 15.4994 35.1555 15.4869 35.1555 15.4719C35.1555 15.1264 34.8755 14.8469 34.53 14.8464H32.6235C32.4578 14.8466 32.299 14.9125 32.1819 15.0297C32.0648 15.1469 31.999 15.3058 31.999 15.4714H31.9845L31.987 19.9074C31.155 19.9074 30.305 19.9239 29.461 19.9414L29.4595 15.5264C29.461 15.5074 29.4705 15.4909 29.4705 15.4714C29.4705 15.1259 29.1905 14.8464 28.845 14.8459H26.9385C26.7728 14.8461 26.614 14.912 26.4969 15.0292C26.3798 15.1464 26.314 15.3053 26.314 15.4709L26.3145 15.4724H26.299L26.3 20.0439C25.615 20.0579 24.9425 20.0724 24.2865 20.0724L24.286 20.0559H19.923V20.0624C19.8408 20.0624 19.7595 20.0785 19.6835 20.1099C19.6076 20.1413 19.5386 20.1874 19.4805 20.2455C19.4224 20.3036 19.3764 20.3726 19.345 20.4485C19.3136 20.5244 19.2974 20.6058 19.2975 20.6879V22.8009C19.2975 23.1464 19.5775 23.4264 19.923 23.4264L19.9255 23.4259V23.4354C19.9255 23.4354 22.2615 23.3899 22.2225 23.4314C23.5035 23.4319 23.921 24.1754 24.0425 24.8169L24.045 30.7384L24.0455 30.7609L24.048 39.0544C23.992 39.4574 23.755 40.1009 22.86 40.1024C22.9005 40.1379 20.5605 40.1019 20.5605 40.1019L20.56 40.1049C20.556 40.1049 20.553 40.1024 20.549 40.1024C20.2485 40.1024 20.0095 40.3184 19.949 40.6009L19.9235 40.5994L19.3475 43.1839L19.361 43.1864C19.3585 43.2094 19.3475 43.2294 19.3475 43.2534C19.3475 43.5854 19.6085 43.8509 19.9355 43.8714L19.934 43.8809L24.0505 43.8794C24.8165 43.8794 25.5705 43.8919 26.3105 43.8964L26.314 48.5274H26.3155C26.3155 48.8724 26.5955 49.1524 26.941 49.1524H28.8475C29.0132 49.1522 29.172 49.0862 29.2891 48.9689C29.4062 48.8516 29.472 48.6927 29.472 48.5269H29.473L29.471 43.9524C30.3385 43.9699 31.178 43.9764 31.998 43.9744L31.999 48.5274H32.0005C32.001 48.8724 32.2805 49.1524 32.6255 49.1524H34.532C34.6977 49.1522 34.8565 49.0862 34.9736 48.9689C35.0907 48.8516 35.1565 48.6927 35.1565 48.5269L35.1605 48.5264L35.1595 43.9029C40.477 43.5954 44.199 42.2544 44.659 37.2599C45.03 33.2394 43.1375 31.4454 40.1185 30.7224ZM29.536 23.6599C31.3215 23.6589 36.9305 23.0889 36.9325 26.8159C36.933 30.3899 31.3235 29.9749 29.538 29.9759L29.536 23.6599ZM29.5415 40.1274L29.54 33.1629C31.684 33.1629 38.4065 32.5439 38.408 36.6404C38.411 40.5684 31.6855 40.1239 29.5415 40.1274Z" fill="white"/>
</svg>
