<svg width="24" height="24" viewBox="0 0 24 24" fill="none" xmlns="http://www.w3.org/2000/svg">
<path d="M15.8969 11.3868C16.7769 10.9382 17.327 10.1479 17.1979 8.83221C17.0244 7.03365 15.4716 6.43149 13.5115 6.26061L13.5105 4.08669C13.511 4.07973 13.5146 4.07373 13.5146 4.06653C13.5146 3.90069 13.3802 3.76653 13.2144 3.76629H12.2993C12.2197 3.76636 12.1435 3.79799 12.0873 3.85424C12.0311 3.9105 11.9995 3.98677 11.9995 4.06629H11.9925L11.9937 6.19557C11.5944 6.19557 11.1864 6.20349 10.7813 6.21189L10.7805 4.09269C10.7813 4.08357 10.7858 4.07565 10.7858 4.06629C10.7858 3.90045 10.6514 3.76629 10.4856 3.76605H9.57045C9.49093 3.76612 9.41468 3.79775 9.35847 3.854C9.30227 3.91026 9.27069 3.98653 9.27069 4.06605L9.27093 4.06677H9.26349L9.26397 6.26109C8.93517 6.26781 8.61237 6.27477 8.29749 6.27477L8.29725 6.26685H6.20301V6.26997C6.16357 6.26994 6.12452 6.27768 6.08808 6.29276C6.05164 6.30784 6.01853 6.32995 5.99064 6.35784C5.96275 6.38573 5.94064 6.41884 5.92556 6.45528C5.91048 6.49172 5.90274 6.53078 5.90277 6.57021V7.58445C5.90277 7.75029 6.03717 7.88469 6.20301 7.88469L6.20421 7.88445V7.88901C6.20421 7.88901 7.32549 7.86717 7.30677 7.88709C7.92165 7.88733 8.12205 8.24421 8.18037 8.55213L8.18157 11.3945L8.18181 11.4053L8.18301 15.3861C8.15613 15.5796 8.04237 15.8885 7.61277 15.8892C7.63221 15.9062 6.50901 15.8889 6.50901 15.8889L6.50877 15.8904C6.50685 15.8904 6.50541 15.8892 6.50349 15.8892C6.35925 15.8892 6.24453 15.9929 6.21549 16.1285L6.20325 16.1277L5.92677 17.3683L5.93325 17.3695C5.93205 17.3805 5.92677 17.3901 5.92677 17.4017C5.92677 17.561 6.05205 17.6885 6.20901 17.6983L6.20829 17.7029L8.18421 17.7021C8.55189 17.7021 8.91381 17.7081 9.26901 17.7103L9.27069 19.9332H9.27141C9.27141 20.0988 9.40581 20.2332 9.57165 20.2332H10.4868C10.5663 20.233 10.6426 20.2014 10.6988 20.1451C10.755 20.0888 10.7865 20.0125 10.7865 19.9329H10.787L10.7861 17.7372C11.2025 17.7456 11.6054 17.7487 11.999 17.7477L11.9995 19.9332H12.0002C12.0005 20.0988 12.1346 20.2332 12.3002 20.2332H13.2153C13.2949 20.233 13.3711 20.2014 13.4273 20.1451C13.4835 20.0888 13.5151 20.0125 13.5151 19.9329L13.517 19.9327L13.5165 17.7134C16.0689 17.5658 17.8555 16.9221 18.0763 14.5248C18.2544 12.5949 17.346 11.7338 15.8969 11.3868ZM10.8173 7.99677C11.6743 7.99629 14.3666 7.72269 14.3676 9.51165C14.3678 11.2272 11.6753 11.028 10.8182 11.0285L10.8173 7.99677ZM10.8199 15.9012L10.8192 12.5582C11.8483 12.5582 15.0751 12.2611 15.0758 14.2274C15.0773 16.1129 11.849 15.8995 10.8199 15.9012Z" fill="#06AFE2"/>
</svg>
