<svg width="40" height="40" viewBox="0 0 40 40" fill="none" xmlns="http://www.w3.org/2000/svg">
<circle cx="20" cy="20" r="20" fill="#1B1D27"/>
<path d="M28.4817 12.2182C26.93 11.4949 25.25 10.9699 23.5 10.6666C23.4847 10.6661 23.4694 10.6689 23.4553 10.675C23.4412 10.681 23.4286 10.6901 23.4183 10.7016C23.2083 11.0866 22.9633 11.5882 22.8 11.9732C20.9438 11.6932 19.0562 11.6932 17.2 11.9732C17.0367 11.5766 16.7917 11.0866 16.57 10.7016C16.5583 10.6782 16.5233 10.6666 16.4883 10.6666C14.7383 10.9699 13.07 11.4949 11.5067 12.2182C11.495 12.2182 11.4833 12.2299 11.4717 12.2416C8.29833 16.9899 7.42333 21.6099 7.85499 26.1832C7.85499 26.2066 7.86666 26.2299 7.88999 26.2416C9.98999 27.7816 12.0083 28.7149 14.0033 29.3332C14.0383 29.3449 14.0733 29.3332 14.085 29.3099C14.5517 28.6682 14.9717 27.9916 15.3333 27.2799C15.3567 27.2332 15.3333 27.1866 15.2867 27.1749C14.6217 26.9182 13.9917 26.6149 13.3733 26.2649C13.3267 26.2416 13.3267 26.1716 13.3617 26.1366C13.49 26.0432 13.6183 25.9382 13.7467 25.8449C13.77 25.8216 13.805 25.8216 13.8283 25.8332C17.8417 27.6649 22.17 27.6649 26.1367 25.8332C26.16 25.8216 26.195 25.8216 26.2183 25.8449C26.3467 25.9499 26.475 26.0432 26.6033 26.1482C26.65 26.1832 26.65 26.2532 26.5917 26.2766C25.985 26.6382 25.3433 26.9299 24.6783 27.1866C24.6317 27.1982 24.62 27.2566 24.6317 27.2916C25.005 28.0032 25.425 28.6799 25.88 29.3216C25.915 29.3332 25.95 29.3449 25.985 29.3332C27.9917 28.7149 30.01 27.7816 32.11 26.2416C32.1333 26.2299 32.145 26.2066 32.145 26.1832C32.6583 20.8982 31.2933 16.3132 28.5283 12.2416C28.5167 12.2299 28.505 12.2182 28.4817 12.2182ZM15.94 23.3949C14.7383 23.3949 13.735 22.2866 13.735 20.9216C13.735 19.5566 14.715 18.4482 15.94 18.4482C17.1767 18.4482 18.1567 19.5682 18.145 20.9216C18.145 22.2866 17.165 23.3949 15.94 23.3949ZM24.0717 23.3949C22.87 23.3949 21.8667 22.2866 21.8667 20.9216C21.8667 19.5566 22.8467 18.4482 24.0717 18.4482C25.3083 18.4482 26.2883 19.5682 26.2767 20.9216C26.2767 22.2866 25.3083 23.3949 24.0717 23.3949Z" fill="white"/>
</svg>
