<svg width="27" height="26" viewBox="0 0 27 26" fill="none" xmlns="http://www.w3.org/2000/svg">
<path d="M2.48206 0.325416C6.43279 -0.199259 10.4383 0.15705 14.4126 0.0787402C17.5489 -0.011316 20.8261 0.885331 23.1363 3.09367C26.0807 5.85409 27.3493 9.9027 27.8857 13.7947C28.3439 17.1738 28.3165 20.639 27.5451 23.9671C27.3493 24.4135 27.3924 25.2318 26.6994 25.087C25.7244 23.7949 25.1175 22.2482 23.9859 21.0736C22.0713 18.9201 19.2443 17.8042 16.429 17.4713C12.6349 17.0015 8.81733 17.5497 5.0193 17.675C3.7037 17.7219 2.1375 17.4988 1.38964 16.2732C0.230652 14.2097 0.414687 11.743 0.332462 9.46025C0.379448 7.11487 0.0309595 4.76558 0.27372 2.42803C0.340283 1.2573 1.38181 0.466374 2.48206 0.325416ZM7.20805 6.58237C6.38188 7.64347 6.78518 9.21358 6.84783 10.4705C6.99662 11.6882 8.42185 11.4885 9.31066 11.4846C11.6012 11.3005 13.931 11.7586 16.198 11.3044C17.9248 10.8542 17.7329 8.28169 16.4995 7.38504C14.9921 6.34352 13.0421 6.4375 11.2958 6.34744C9.93715 6.40226 8.50799 6.136 7.20805 6.58237Z" fill="#FB3BED"/>
</svg>
