<svg width="286" height="223" viewBox="0 0 286 223" fill="none" xmlns="http://www.w3.org/2000/svg">
<rect width="285.038" height="223" rx="30.5982" fill="#1B2043"/>
<rect x="20.1203" y="31.8571" width="23.4737" height="139.165" rx="8.38346" fill="url(#paint0_linear_1_33)"/>
<rect x="57.0075" y="31.8571" width="23.4737" height="139.165" rx="8.38346" fill="url(#paint1_linear_1_33)"/>
<rect x="93.8947" y="31.8571" width="23.4737" height="139.165" rx="8.38346" fill="url(#paint2_linear_1_33)"/>
<rect x="130.782" y="31.8571" width="23.4737" height="139.165" rx="8.38346" fill="url(#paint3_linear_1_33)"/>
<rect x="167.669" y="31.8571" width="23.4737" height="139.165" rx="8.38346" fill="url(#paint4_linear_1_33)"/>
<rect x="204.556" y="31.8571" width="23.4737" height="139.165" rx="8.38346" fill="url(#paint5_linear_1_33)"/>
<rect x="241.444" y="31.8571" width="23.4737" height="139.165" rx="8.38346" fill="url(#paint6_linear_1_33)"/>
<path d="M27.2362 198.436V190.683L23.7889 196.706H23.1987L19.738 190.683V198.436H18.7991V188.912H19.7649L23.4804 195.431L27.2228 188.912H28.1752V198.436H27.2362ZM33.2474 198.57C32.7466 198.57 32.2816 198.476 31.8523 198.289C31.4321 198.092 31.0654 197.828 30.7524 197.497C30.4484 197.157 30.2114 196.773 30.0415 196.344C29.8716 195.905 29.7867 195.445 29.7867 194.962C29.7867 194.461 29.8716 193.996 30.0415 193.567C30.2114 193.129 30.4529 192.744 30.7658 192.413C31.0788 192.074 31.4455 191.81 31.8658 191.622C32.295 191.425 32.76 191.327 33.2608 191.327C33.7615 191.327 34.2221 191.425 34.6424 191.622C35.0627 191.81 35.4293 192.074 35.7423 192.413C36.0553 192.744 36.2967 193.129 36.4666 193.567C36.6365 193.996 36.7215 194.461 36.7215 194.962C36.7215 195.445 36.6365 195.905 36.4666 196.344C36.2967 196.773 36.0553 197.157 35.7423 197.497C35.4382 197.828 35.0716 198.092 34.6424 198.289C34.2221 198.476 33.7571 198.57 33.2474 198.57ZM30.7122 194.975C30.7122 195.494 30.824 195.968 31.0475 196.397C31.28 196.818 31.5885 197.153 31.9731 197.403C32.3576 197.645 32.7823 197.765 33.2474 197.765C33.7124 197.765 34.1371 197.64 34.5216 197.39C34.9062 197.139 35.2147 196.8 35.4472 196.37C35.6797 195.932 35.7959 195.458 35.7959 194.949C35.7959 194.43 35.6797 193.956 35.4472 193.527C35.2147 193.098 34.9062 192.758 34.5216 192.507C34.1371 192.257 33.7124 192.132 33.2474 192.132C32.7823 192.132 32.3576 192.261 31.9731 192.521C31.5975 192.78 31.2934 193.124 31.0609 193.554C30.8284 193.974 30.7122 194.448 30.7122 194.975ZM44.1221 198.436H43.2099V194.533C43.2099 193.71 43.0892 193.111 42.8478 192.735C42.6063 192.351 42.2263 192.159 41.7076 192.159C41.3499 192.159 40.9967 192.248 40.648 192.427C40.2992 192.597 39.9907 192.834 39.7224 193.138C39.4631 193.433 39.2753 193.773 39.1591 194.157V198.436H38.2469V191.448H39.0786V193.03C39.2664 192.691 39.5123 192.396 39.8163 192.145C40.1204 191.886 40.4646 191.685 40.8492 191.542C41.2337 191.398 41.6316 191.327 42.043 191.327C42.4275 191.327 42.7539 191.398 43.0222 191.542C43.2904 191.685 43.505 191.89 43.666 192.159C43.827 192.418 43.9432 192.735 44.0148 193.111C44.0863 193.478 44.1221 193.889 44.1221 194.345V198.436Z" fill="#9C9C9C"/>
<path d="M64.9618 189.744H61.5682V198.436H60.6292V189.744H57.2356V188.912H64.9618V189.744ZM65.007 195.552V191.448H65.9191V195.391C65.9191 196.187 66.0532 196.782 66.3215 197.175C66.5987 197.569 67.0056 197.765 67.5421 197.765C67.8998 197.765 68.2441 197.689 68.575 197.537C68.9148 197.376 69.2143 197.153 69.4737 196.867C69.733 196.572 69.9297 196.232 70.0639 195.847V191.448H70.976V197.336C70.976 197.461 71.0028 197.555 71.0565 197.618C71.1101 197.672 71.1906 197.703 71.2979 197.712V198.436C71.1906 198.445 71.1056 198.45 71.0431 198.45C70.9805 198.458 70.9223 198.463 70.8687 198.463C70.6898 198.445 70.5333 198.373 70.3992 198.248C70.274 198.123 70.2069 197.971 70.198 197.792L70.1712 196.853C69.8671 197.39 69.4513 197.81 68.9237 198.114C68.4051 198.418 67.8417 198.57 67.2336 198.57C66.5003 198.57 65.9459 198.315 65.5703 197.806C65.1947 197.296 65.007 196.545 65.007 195.552ZM76.0564 198.57C75.5556 198.57 75.0906 198.476 74.6614 198.289C74.2321 198.092 73.861 197.828 73.548 197.497C73.235 197.157 72.9891 196.768 72.8103 196.33C72.6404 195.892 72.5554 195.423 72.5554 194.922C72.5554 194.269 72.703 193.67 72.9981 193.124C73.3021 192.579 73.7179 192.145 74.2455 191.823C74.7731 191.492 75.3723 191.327 76.0429 191.327C76.7315 191.327 77.3306 191.492 77.8404 191.823C78.359 192.154 78.7659 192.592 79.061 193.138C79.3561 193.674 79.5036 194.264 79.5036 194.908C79.5036 194.98 79.5036 195.051 79.5036 195.123C79.5036 195.186 79.4992 195.235 79.4902 195.271H73.5078C73.5525 195.771 73.6911 196.218 73.9236 196.612C74.1651 196.996 74.4736 197.305 74.8491 197.537C75.2337 197.761 75.6495 197.873 76.0966 197.873C76.5527 197.873 76.9819 197.756 77.3843 197.524C77.7956 197.291 78.0818 196.987 78.2428 196.612L79.0342 196.826C78.8911 197.157 78.672 197.457 78.3769 197.725C78.0818 197.993 77.7331 198.204 77.3306 198.356C76.9372 198.499 76.5124 198.57 76.0564 198.57ZM73.481 194.613H78.6452C78.6094 194.104 78.4708 193.656 78.2294 193.272C77.9969 192.887 77.6883 192.588 77.3038 192.373C76.9282 192.15 76.5124 192.038 76.0564 192.038C75.6003 192.038 75.1845 192.15 74.8089 192.373C74.4333 192.588 74.1248 192.892 73.8834 193.285C73.6509 193.67 73.5167 194.112 73.481 194.613Z" fill="#9C9C9C"/>
<path d="M95.3166 188.98H96.2019L97.5432 192.36L98.898 188.98H99.7967L98.1334 193.044L99.9577 197.35L103.405 188.912H104.424L100.387 198.436H99.5553L97.5567 193.728L95.5446 198.436H94.7264L90.7023 188.912H91.7084L95.1691 197.35L96.9799 193.044L95.3166 188.98ZM107.691 198.57C107.19 198.57 106.725 198.476 106.296 198.289C105.867 198.092 105.495 197.828 105.182 197.497C104.869 197.157 104.624 196.768 104.445 196.33C104.275 195.892 104.19 195.423 104.19 194.922C104.19 194.269 104.337 193.67 104.633 193.124C104.937 192.579 105.352 192.145 105.88 191.823C106.408 191.492 107.007 191.327 107.677 191.327C108.366 191.327 108.965 191.492 109.475 191.823C109.993 192.154 110.4 192.592 110.695 193.138C110.991 193.674 111.138 194.264 111.138 194.908C111.138 194.98 111.138 195.051 111.138 195.123C111.138 195.186 111.134 195.235 111.125 195.271H105.142C105.187 195.771 105.326 196.218 105.558 196.612C105.799 196.996 106.108 197.305 106.484 197.537C106.868 197.761 107.284 197.873 107.731 197.873C108.187 197.873 108.616 197.756 109.019 197.524C109.43 197.291 109.716 196.987 109.877 196.612L110.669 196.826C110.526 197.157 110.306 197.457 110.011 197.725C109.716 197.993 109.367 198.204 108.965 198.356C108.572 198.499 108.147 198.57 107.691 198.57ZM105.115 194.613H110.28C110.244 194.104 110.105 193.656 109.864 193.272C109.631 192.887 109.323 192.588 108.938 192.373C108.563 192.15 108.147 192.038 107.691 192.038C107.235 192.038 106.819 192.15 106.443 192.373C106.068 192.588 105.759 192.892 105.518 193.285C105.285 193.67 105.151 194.112 105.115 194.613ZM112.076 194.962C112.076 194.3 112.21 193.697 112.478 193.151C112.755 192.597 113.136 192.154 113.618 191.823C114.101 191.492 114.651 191.327 115.268 191.327C115.85 191.327 116.368 191.483 116.824 191.796C117.289 192.1 117.651 192.472 117.911 192.91V188.644H118.823V197.336C118.823 197.461 118.85 197.555 118.903 197.618C118.957 197.672 119.037 197.703 119.145 197.712V198.436C118.966 198.463 118.827 198.472 118.729 198.463C118.541 198.454 118.376 198.378 118.233 198.235C118.09 198.092 118.018 197.935 118.018 197.765V197.081C117.741 197.537 117.365 197.9 116.891 198.168C116.417 198.436 115.926 198.57 115.416 198.57C114.933 198.57 114.486 198.472 114.074 198.275C113.672 198.078 113.319 197.81 113.015 197.47C112.72 197.131 112.487 196.746 112.317 196.317C112.156 195.879 112.076 195.427 112.076 194.962ZM117.911 196.035V193.875C117.795 193.554 117.607 193.263 117.347 193.004C117.088 192.735 116.793 192.525 116.462 192.373C116.14 192.212 115.818 192.132 115.496 192.132C115.121 192.132 114.781 192.212 114.477 192.373C114.173 192.525 113.909 192.735 113.685 193.004C113.471 193.272 113.305 193.576 113.189 193.916C113.073 194.256 113.015 194.604 113.015 194.962C113.015 195.338 113.077 195.695 113.203 196.035C113.337 196.375 113.525 196.679 113.766 196.947C114.007 197.207 114.285 197.408 114.598 197.551C114.911 197.694 115.25 197.765 115.617 197.765C115.85 197.765 116.091 197.721 116.341 197.631C116.592 197.542 116.829 197.421 117.052 197.269C117.285 197.108 117.477 196.92 117.629 196.706C117.781 196.491 117.875 196.268 117.911 196.035Z" fill="#9C9C9C"/>
<path d="M137.898 189.744H134.504V198.436H133.565V189.744H130.172V188.912H137.898V189.744ZM145.012 198.436H144.1V194.533C144.1 193.746 143.961 193.156 143.684 192.762C143.407 192.36 143.009 192.159 142.49 192.159C142.15 192.159 141.81 192.248 141.471 192.427C141.14 192.597 140.845 192.834 140.585 193.138C140.335 193.433 140.156 193.773 140.049 194.157V198.436H139.137V188.644H140.049V193.03C140.326 192.512 140.71 192.1 141.202 191.796C141.703 191.483 142.235 191.327 142.798 191.327C143.201 191.327 143.541 191.398 143.818 191.542C144.104 191.685 144.332 191.895 144.502 192.172C144.681 192.44 144.811 192.758 144.891 193.124C144.971 193.482 145.012 193.889 145.012 194.345V198.436ZM146.89 195.552V191.448H147.802V195.391C147.802 196.187 147.936 196.782 148.204 197.175C148.481 197.569 148.888 197.765 149.425 197.765C149.783 197.765 150.127 197.689 150.458 197.537C150.798 197.376 151.097 197.153 151.356 196.867C151.616 196.572 151.812 196.232 151.947 195.847V191.448H152.859V197.336C152.859 197.461 152.886 197.555 152.939 197.618C152.993 197.672 153.073 197.703 153.181 197.712V198.436C153.073 198.445 152.988 198.45 152.926 198.45C152.863 198.458 152.805 198.463 152.751 198.463C152.573 198.445 152.416 198.373 152.282 198.248C152.157 198.123 152.09 197.971 152.081 197.792L152.054 196.853C151.75 197.39 151.334 197.81 150.806 198.114C150.288 198.418 149.724 198.57 149.116 198.57C148.383 198.57 147.829 198.315 147.453 197.806C147.078 197.296 146.89 196.545 146.89 195.552Z" fill="#9C9C9C"/>
<path d="M173.055 198.436V188.912H179.305V189.744H173.994V193.245H178.474V194.023H173.994V198.436H173.055ZM183.742 192.252C183.134 192.27 182.598 192.44 182.133 192.762C181.677 193.084 181.355 193.527 181.167 194.09V198.436H180.255V191.448H181.113V193.124C181.355 192.633 181.672 192.235 182.066 191.931C182.468 191.626 182.893 191.457 183.34 191.421C183.429 191.412 183.505 191.407 183.568 191.407C183.64 191.407 183.698 191.412 183.742 191.421V192.252ZM184.957 198.436V191.448H185.87V198.436H184.957ZM184.957 189.986V188.644H185.87V189.986H184.957Z" fill="#9C9C9C"/>
<path d="M212.994 190.696C212.859 190.544 212.703 190.41 212.524 190.294C212.345 190.169 212.144 190.062 211.92 189.972C211.697 189.883 211.455 189.811 211.196 189.758C210.946 189.704 210.677 189.677 210.391 189.677C209.56 189.677 208.947 189.838 208.554 190.16C208.169 190.473 207.977 190.902 207.977 191.448C207.977 191.823 208.066 192.118 208.245 192.333C208.433 192.548 208.724 192.722 209.117 192.856C209.51 192.99 210.011 193.129 210.619 193.272C211.299 193.415 211.885 193.585 212.376 193.782C212.868 193.978 213.248 194.247 213.517 194.586C213.785 194.917 213.919 195.369 213.919 195.941C213.919 196.379 213.834 196.759 213.664 197.081C213.494 197.403 213.257 197.672 212.953 197.886C212.649 198.101 212.287 198.262 211.867 198.369C211.446 198.467 210.986 198.517 210.485 198.517C209.993 198.517 209.519 198.467 209.063 198.369C208.616 198.262 208.191 198.11 207.789 197.913C207.387 197.707 207.011 197.448 206.662 197.135L207.132 196.37C207.302 196.549 207.503 196.719 207.735 196.88C207.977 197.032 208.241 197.171 208.527 197.296C208.822 197.421 209.135 197.52 209.466 197.591C209.806 197.654 210.154 197.685 210.512 197.685C211.272 197.685 211.862 197.546 212.283 197.269C212.712 196.992 212.926 196.581 212.926 196.035C212.926 195.642 212.819 195.329 212.605 195.096C212.39 194.855 212.068 194.658 211.639 194.506C211.21 194.354 210.682 194.206 210.056 194.063C209.394 193.911 208.835 193.741 208.379 193.554C207.923 193.366 207.579 193.12 207.346 192.816C207.123 192.503 207.011 192.091 207.011 191.582C207.011 190.992 207.154 190.495 207.44 190.093C207.735 189.682 208.138 189.373 208.648 189.167C209.157 188.953 209.743 188.845 210.405 188.845C210.825 188.845 211.214 188.89 211.572 188.98C211.938 189.06 212.274 189.181 212.578 189.342C212.891 189.503 213.181 189.704 213.45 189.945L212.994 190.696ZM214.823 196.424C214.823 195.986 214.949 195.61 215.199 195.297C215.449 194.975 215.794 194.729 216.232 194.56C216.679 194.381 217.193 194.291 217.774 194.291C218.114 194.291 218.467 194.318 218.834 194.372C219.201 194.425 219.527 194.506 219.813 194.613V194.023C219.813 193.433 219.639 192.963 219.29 192.615C218.941 192.266 218.458 192.091 217.841 192.091C217.466 192.091 217.095 192.163 216.728 192.306C216.37 192.44 215.995 192.641 215.601 192.91L215.253 192.266C215.709 191.953 216.156 191.72 216.594 191.568C217.032 191.407 217.479 191.327 217.935 191.327C218.794 191.327 219.473 191.573 219.974 192.065C220.475 192.556 220.725 193.236 220.725 194.104V197.336C220.725 197.461 220.752 197.555 220.806 197.618C220.86 197.672 220.944 197.703 221.061 197.712V198.436C220.962 198.445 220.877 198.454 220.806 198.463C220.734 198.472 220.681 198.472 220.645 198.463C220.421 198.454 220.251 198.382 220.135 198.248C220.019 198.114 219.956 197.971 219.947 197.819L219.934 197.309C219.621 197.712 219.214 198.025 218.713 198.248C218.213 198.463 217.703 198.57 217.184 198.57C216.737 198.57 216.33 198.476 215.964 198.289C215.606 198.092 215.324 197.832 215.119 197.511C214.922 197.18 214.823 196.818 214.823 196.424ZM219.505 196.961C219.603 196.835 219.679 196.715 219.733 196.598C219.786 196.482 219.813 196.379 219.813 196.29V195.271C219.509 195.154 219.192 195.065 218.861 195.002C218.539 194.94 218.213 194.908 217.882 194.908C217.229 194.908 216.701 195.038 216.299 195.297C215.896 195.557 215.695 195.91 215.695 196.357C215.695 196.616 215.762 196.862 215.896 197.095C216.031 197.318 216.227 197.506 216.487 197.658C216.746 197.801 217.05 197.873 217.399 197.873C217.837 197.873 218.244 197.788 218.619 197.618C219.004 197.448 219.299 197.229 219.505 196.961ZM225.997 198.101C225.926 198.128 225.814 198.177 225.662 198.248C225.51 198.32 225.326 198.382 225.112 198.436C224.897 198.49 224.665 198.517 224.414 198.517C224.155 198.517 223.909 198.467 223.677 198.369C223.453 198.271 223.274 198.123 223.14 197.926C223.006 197.721 222.939 197.47 222.939 197.175V192.172H221.973V191.448H222.939V189.087H223.851V191.448H225.461V192.172H223.851V196.92C223.869 197.171 223.958 197.359 224.119 197.484C224.289 197.609 224.481 197.672 224.696 197.672C224.946 197.672 225.174 197.631 225.38 197.551C225.586 197.461 225.711 197.399 225.756 197.363L225.997 198.101Z" fill="#9C9C9C"/>
<path d="M247.366 190.696C247.232 190.544 247.075 190.41 246.896 190.294C246.717 190.169 246.516 190.062 246.293 189.972C246.069 189.883 245.828 189.811 245.568 189.758C245.318 189.704 245.05 189.677 244.763 189.677C243.932 189.677 243.319 189.838 242.926 190.16C242.541 190.473 242.349 190.902 242.349 191.448C242.349 191.823 242.438 192.118 242.617 192.333C242.805 192.548 243.096 192.722 243.489 192.856C243.883 192.99 244.383 193.129 244.992 193.272C245.671 193.415 246.257 193.585 246.749 193.782C247.241 193.978 247.621 194.247 247.889 194.586C248.157 194.917 248.291 195.369 248.291 195.941C248.291 196.379 248.206 196.759 248.036 197.081C247.866 197.403 247.63 197.672 247.325 197.886C247.021 198.101 246.659 198.262 246.239 198.369C245.819 198.467 245.358 198.517 244.857 198.517C244.366 198.517 243.892 198.467 243.436 198.369C242.988 198.262 242.564 198.11 242.161 197.913C241.759 197.707 241.383 197.448 241.035 197.135L241.504 196.37C241.674 196.549 241.875 196.719 242.108 196.88C242.349 197.032 242.613 197.171 242.899 197.296C243.194 197.421 243.507 197.52 243.838 197.591C244.178 197.654 244.527 197.685 244.884 197.685C245.644 197.685 246.234 197.546 246.655 197.269C247.084 196.992 247.299 196.581 247.299 196.035C247.299 195.642 247.191 195.329 246.977 195.096C246.762 194.855 246.44 194.658 246.011 194.506C245.582 194.354 245.054 194.206 244.428 194.063C243.766 193.911 243.208 193.741 242.751 193.554C242.295 193.366 241.951 193.12 241.719 192.816C241.495 192.503 241.383 192.091 241.383 191.582C241.383 190.992 241.526 190.495 241.813 190.093C242.108 189.682 242.51 189.373 243.02 189.167C243.529 188.953 244.115 188.845 244.777 188.845C245.197 188.845 245.586 188.89 245.944 188.98C246.311 189.06 246.646 189.181 246.95 189.342C247.263 189.503 247.553 189.704 247.822 189.945L247.366 190.696ZM249.692 195.552V191.448H250.604V195.391C250.604 196.187 250.738 196.782 251.006 197.175C251.284 197.569 251.691 197.765 252.227 197.765C252.585 197.765 252.929 197.689 253.26 197.537C253.6 197.376 253.899 197.153 254.159 196.867C254.418 196.572 254.615 196.232 254.749 195.847V191.448H255.661V197.336C255.661 197.461 255.688 197.555 255.741 197.618C255.795 197.672 255.876 197.703 255.983 197.712V198.436C255.876 198.445 255.791 198.45 255.728 198.45C255.665 198.458 255.607 198.463 255.554 198.463C255.375 198.445 255.218 198.373 255.084 198.248C254.959 198.123 254.892 197.971 254.883 197.792L254.856 196.853C254.552 197.39 254.136 197.81 253.609 198.114C253.09 198.418 252.527 198.57 251.919 198.57C251.185 198.57 250.631 198.315 250.255 197.806C249.88 197.296 249.692 196.545 249.692 195.552ZM263.598 198.436H262.686V194.533C262.686 193.71 262.566 193.111 262.324 192.735C262.083 192.351 261.703 192.159 261.184 192.159C260.826 192.159 260.473 192.248 260.124 192.427C259.776 192.597 259.467 192.834 259.199 193.138C258.939 193.433 258.752 193.773 258.635 194.157V198.436H257.723V191.448H258.555V193.03C258.743 192.691 258.989 192.396 259.293 192.145C259.597 191.886 259.941 191.685 260.325 191.542C260.71 191.398 261.108 191.327 261.519 191.327C261.904 191.327 262.23 191.398 262.498 191.542C262.767 191.685 262.981 191.89 263.142 192.159C263.303 192.418 263.42 192.735 263.491 193.111C263.563 193.478 263.598 193.889 263.598 194.345V198.436Z" fill="#9C9C9C"/>
<defs>
<linearGradient id="paint0_linear_1_33" x1="31.8571" y1="31.8571" x2="31.8571" y2="171.023" gradientUnits="userSpaceOnUse">
<stop offset="0.328125" stop-color="#2A1D54"/>
<stop offset="0.723958" stop-color="#06AFE2"/>
<stop offset="1" stop-color="#5A3FF2"/>
</linearGradient>
<linearGradient id="paint1_linear_1_33" x1="68.7443" y1="31.8571" x2="68.7443" y2="171.023" gradientUnits="userSpaceOnUse">
<stop offset="0.5625" stop-color="#2A1D54"/>
<stop offset="0.776042" stop-color="#06AFE2"/>
<stop offset="1" stop-color="#5A3FF2"/>
</linearGradient>
<linearGradient id="paint2_linear_1_33" x1="105.632" y1="31.8571" x2="105.632" y2="171.023" gradientUnits="userSpaceOnUse">
<stop offset="0.78125" stop-color="#2A1D54"/>
<stop offset="0.869792" stop-color="#06AFE2"/>
<stop offset="1" stop-color="#5A3FF2"/>
</linearGradient>
<linearGradient id="paint3_linear_1_33" x1="142.519" y1="31.8571" x2="142.519" y2="171.023" gradientUnits="userSpaceOnUse">
<stop offset="0.328125" stop-color="#2A1D54"/>
<stop offset="0.723958" stop-color="#06AFE2"/>
<stop offset="1" stop-color="#5A3FF2"/>
</linearGradient>
<linearGradient id="paint4_linear_1_33" x1="179.406" y1="31.8571" x2="179.406" y2="171.023" gradientUnits="userSpaceOnUse">
<stop offset="0.338542" stop-color="#2A1D54"/>
<stop offset="0.71875" stop-color="#06AFE2"/>
<stop offset="1" stop-color="#5A3FF2"/>
</linearGradient>
<linearGradient id="paint5_linear_1_33" x1="216.293" y1="31.8571" x2="216.293" y2="171.023" gradientUnits="userSpaceOnUse">
<stop offset="0.328125" stop-color="#2A1D54"/>
<stop offset="0.723958" stop-color="#06AFE2"/>
<stop offset="1" stop-color="#5A3FF2"/>
</linearGradient>
<linearGradient id="paint6_linear_1_33" x1="253.18" y1="31.8571" x2="253.18" y2="171.023" gradientUnits="userSpaceOnUse">
<stop offset="0.328125" stop-color="#2A1D54"/>
<stop offset="0.723958" stop-color="#06AFE2"/>
<stop offset="1" stop-color="#5A3FF2"/>
</linearGradient>
</defs>
</svg>
