<svg width="29" height="28" viewBox="0 0 29 28" fill="none" xmlns="http://www.w3.org/2000/svg">
<path d="M14.5 26.8333C12.7467 26.8332 11.0338 26.3063 9.58354 25.321C8.13326 24.3357 7.01244 22.9374 6.36639 21.3075C5.72034 19.6775 5.57887 17.891 5.96032 16.1797C6.34176 14.4684 7.22853 12.9111 8.50565 11.7098C10.0713 10.2363 13.9167 7.58333 13.3333 1.75C20.3333 6.41667 23.8333 11.0833 16.8333 18.0833C18 18.0833 19.75 18.0833 22.6667 15.2017C22.9817 16.1035 23.25 17.073 23.25 18.0833C23.25 20.404 22.3281 22.6296 20.6872 24.2705C19.0462 25.9115 16.8206 26.8333 14.5 26.8333Z" fill="#06AFE2"/>
</svg>
