<svg width="17" height="88" viewBox="0 0 17 88" fill="none" xmlns="http://www.w3.org/2000/svg">
<circle cx="11" cy="2" r="2" transform="rotate(90 11 2)" fill="#61636D"/>
<circle cx="11" cy="8" r="2" transform="rotate(90 11 8)" fill="#61636D"/>
<circle cx="11" cy="14" r="2" transform="rotate(90 11 14)" fill="#61636D"/>
<circle cx="11" cy="20" r="2" transform="rotate(90 11 20)" fill="#61636D"/>
<circle cx="11" cy="26" r="2" transform="rotate(90 11 26)" fill="#61636D"/>
<circle cx="11" cy="32" r="2" transform="rotate(90 11 32)" fill="#61636D"/>
<circle cx="11" cy="38" r="2" transform="rotate(90 11 38)" fill="#61636D"/>
<circle cx="11" cy="44" r="2" transform="rotate(90 11 44)" fill="#61636D"/>
<circle cx="11" cy="50" r="2" transform="rotate(90 11 50)" fill="#61636D"/>
<circle cx="11" cy="56" r="2" transform="rotate(90 11 56)" fill="#61636D"/>
<circle cx="11" cy="62" r="2" transform="rotate(90 11 62)" fill="#61636D"/>
<circle cx="11" cy="68" r="2" transform="rotate(90 11 68)" fill="#61636D"/>
<circle cx="11" cy="74" r="2" transform="rotate(90 11 74)" fill="#61636D"/>
<circle cx="11" cy="80" r="2" transform="rotate(90 11 80)" fill="#61636D"/>
<circle cx="11" cy="86" r="2" transform="rotate(90 11 86)" fill="#61636D"/>
<circle cx="2" cy="2" r="2" transform="rotate(90 2 2)" fill="#61636D"/>
<circle cx="2" cy="8" r="2" transform="rotate(90 2 8)" fill="#61636D"/>
<circle cx="2" cy="14" r="2" transform="rotate(90 2 14)" fill="#61636D"/>
<circle cx="2" cy="20" r="2" transform="rotate(90 2 20)" fill="#61636D"/>
<circle cx="2" cy="26" r="2" transform="rotate(90 2 26)" fill="#61636D"/>
<circle cx="2" cy="32" r="2" transform="rotate(90 2 32)" fill="#61636D"/>
<circle cx="2" cy="38" r="2" transform="rotate(90 2 38)" fill="#61636D"/>
<circle cx="2" cy="44" r="2" transform="rotate(90 2 44)" fill="#61636D"/>
<circle cx="2" cy="50" r="2" transform="rotate(90 2 50)" fill="#61636D"/>
<circle cx="2" cy="56" r="2" transform="rotate(90 2 56)" fill="#61636D"/>
<circle cx="2" cy="62" r="2" transform="rotate(90 2 62)" fill="#61636D"/>
<circle cx="2" cy="68" r="2" transform="rotate(90 2 68)" fill="#61636D"/>
<circle cx="2" cy="74" r="2" transform="rotate(90 2 74)" fill="#61636D"/>
<circle cx="2" cy="80" r="2" transform="rotate(90 2 80)" fill="#61636D"/>
<circle cx="2" cy="86" r="2" transform="rotate(90 2 86)" fill="#61636D"/>
</svg>
