<svg width="88" height="31" viewBox="0 0 88 31" fill="none" xmlns="http://www.w3.org/2000/svg">
<circle cx="2" cy="2" r="2" fill="#61636D"/>
<circle cx="8" cy="2" r="2" fill="#61636D"/>
<circle cx="14" cy="2" r="2" fill="#61636D"/>
<circle cx="20" cy="2" r="2" fill="#61636D"/>
<circle cx="26" cy="2" r="2" fill="#61636D"/>
<circle cx="32" cy="2" r="2" fill="#61636D"/>
<circle cx="38" cy="2" r="2" fill="#61636D"/>
<circle cx="44" cy="2" r="2" fill="#61636D"/>
<circle cx="50" cy="2" r="2" fill="#61636D"/>
<circle cx="56" cy="2" r="2" fill="#61636D"/>
<circle cx="62" cy="2" r="2" fill="#61636D"/>
<circle cx="68" cy="2" r="2" fill="#61636D"/>
<circle cx="74" cy="2" r="2" fill="#61636D"/>
<circle cx="80" cy="2" r="2" fill="#61636D"/>
<circle cx="86" cy="2" r="2" fill="#61636D"/>
<circle cx="2" cy="11" r="2" fill="#61636D"/>
<circle cx="8" cy="11" r="2" fill="#61636D"/>
<circle cx="14" cy="11" r="2" fill="#61636D"/>
<circle cx="20" cy="11" r="2" fill="#61636D"/>
<circle cx="26" cy="11" r="2" fill="#61636D"/>
<circle cx="32" cy="11" r="2" fill="#61636D"/>
<circle cx="38" cy="11" r="2" fill="#61636D"/>
<circle cx="44" cy="11" r="2" fill="#61636D"/>
<circle cx="50" cy="11" r="2" fill="#61636D"/>
<circle cx="56" cy="11" r="2" fill="#61636D"/>
<circle cx="62" cy="11" r="2" fill="#61636D"/>
<circle cx="68" cy="11" r="2" fill="#61636D"/>
<circle cx="74" cy="11" r="2" fill="#61636D"/>
<circle cx="80" cy="11" r="2" fill="#61636D"/>
<circle cx="86" cy="11" r="2" fill="#61636D"/>
<circle cx="2" cy="20" r="2" fill="#61636D"/>
<circle cx="8" cy="20" r="2" fill="#61636D"/>
<circle cx="14" cy="20" r="2" fill="#61636D"/>
<circle cx="20" cy="20" r="2" fill="#61636D"/>
<circle cx="26" cy="20" r="2" fill="#61636D"/>
<circle cx="32" cy="20" r="2" fill="#61636D"/>
<circle cx="38" cy="20" r="2" fill="#61636D"/>
<circle cx="44" cy="20" r="2" fill="#61636D"/>
<circle cx="50" cy="20" r="2" fill="#61636D"/>
<circle cx="56" cy="20" r="2" fill="#61636D"/>
<circle cx="62" cy="20" r="2" fill="#61636D"/>
<circle cx="68" cy="20" r="2" fill="#61636D"/>
<circle cx="74" cy="20" r="2" fill="#61636D"/>
<circle cx="80" cy="20" r="2" fill="#61636D"/>
<circle cx="86" cy="20" r="2" fill="#61636D"/>
<circle cx="2" cy="29" r="2" fill="#61636D"/>
<circle cx="8" cy="29" r="2" fill="#61636D"/>
<circle cx="14" cy="29" r="2" fill="#61636D"/>
<circle cx="20" cy="29" r="2" fill="#61636D"/>
<circle cx="26" cy="29" r="2" fill="#61636D"/>
<circle cx="32" cy="29" r="2" fill="#61636D"/>
<circle cx="38" cy="29" r="2" fill="#61636D"/>
<circle cx="44" cy="29" r="2" fill="#61636D"/>
<circle cx="50" cy="29" r="2" fill="#61636D"/>
<circle cx="56" cy="29" r="2" fill="#61636D"/>
<circle cx="62" cy="29" r="2" fill="#61636D"/>
<circle cx="68" cy="29" r="2" fill="#61636D"/>
<circle cx="74" cy="29" r="2" fill="#61636D"/>
<circle cx="80" cy="29" r="2" fill="#61636D"/>
<circle cx="86" cy="29" r="2" fill="#61636D"/>
</svg>
