<svg width="28" height="28" viewBox="0 0 28 28" fill="none" xmlns="http://www.w3.org/2000/svg">
<g clip-path="url(#clip0_1_56)">
<path d="M24.0022 16.2867C24.514 16.3496 25.0068 16.5192 25.4489 16.7844H25.4878C25.9471 14.6131 25.7826 12.3562 25.0133 10.2744C24.9845 10.1708 24.9346 10.0744 24.8666 9.99105C24.7986 9.90775 24.7141 9.83944 24.6184 9.79046C24.5226 9.74147 24.4178 9.71286 24.3105 9.70644C24.2031 9.70001 24.0956 9.71591 23.9948 9.75314C23.8939 9.79036 23.8018 9.84809 23.7244 9.92269C23.6469 9.99729 23.5858 10.0871 23.5449 10.1866C23.5039 10.286 23.484 10.3928 23.4864 10.5003C23.4888 10.6078 23.5135 10.7136 23.5589 10.8111C24.2017 12.5621 24.355 14.4551 24.0022 16.2867ZM20.4789 22.2289C19.1236 23.3595 17.496 24.1157 15.7578 24.4222C15.6557 24.4309 15.5562 24.4596 15.4652 24.5067C15.3741 24.5538 15.2933 24.6184 15.2272 24.6968C15.1611 24.7751 15.1111 24.8657 15.08 24.9634C15.049 25.0611 15.0374 25.164 15.0461 25.2661C15.0548 25.3682 15.0835 25.4677 15.1306 25.5587C15.1777 25.6498 15.2423 25.7306 15.3207 25.7967C15.399 25.8628 15.4897 25.9128 15.5873 25.9439C15.685 25.9749 15.7879 25.9865 15.89 25.9778H16.03C18.1017 25.6123 20.0379 24.6993 21.6378 23.3333V23.2789C21.1803 23.0166 20.7849 22.6584 20.4789 22.2289ZM12.1489 24.3756C10.9725 24.1548 9.84343 23.7311 8.81223 23.1233C8.37127 22.8635 7.94777 22.5751 7.54446 22.26C7.24791 22.6956 6.8605 23.0618 6.4089 23.3333C6.91395 23.7594 7.45234 24.1444 8.0189 24.4844C9.20684 25.1842 10.5067 25.6736 11.8611 25.9311H12.0089C12.2152 25.9497 12.4204 25.8855 12.5794 25.7528C12.7384 25.6201 12.8381 25.4296 12.8567 25.2233C12.8752 25.0171 12.8111 24.8118 12.6784 24.6529C12.5456 24.4939 12.3552 24.3941 12.1489 24.3756ZM3.54668 16.45C3.70223 16.45 3.85779 16.4267 4.01335 16.38C3.64258 14.546 3.78797 12.6451 4.43335 10.8889C4.50451 10.695 4.49574 10.4808 4.40895 10.2933C4.32216 10.1059 4.16447 9.96061 3.97057 9.88944C3.77667 9.81828 3.56243 9.82705 3.375 9.91384C3.18757 10.0006 3.04229 10.1583 2.97112 10.3522C2.20073 12.4509 2.04955 14.7267 2.53557 16.9089C2.84768 16.7061 3.18853 16.5514 3.54668 16.45Z" fill="#06AFE2"/>
<path d="M24.8111 17.8889C24.5333 17.7122 24.2233 17.5923 23.8988 17.5362C23.5744 17.4801 23.2421 17.489 22.9211 17.5622C22.5149 17.6705 22.1412 17.8761 21.8322 18.1611L18.8222 16.4189C19.2963 15.2477 19.34 13.9464 18.9455 12.7461C18.5511 11.5457 17.7441 10.524 16.6678 9.86224L16.5822 9.80779C16.0007 9.47967 15.3618 9.26583 14.7 9.17779V6.22224C15.3194 6.03608 15.8432 5.61819 16.1622 5.05557C16.5058 4.47392 16.6062 3.78025 16.4417 3.12504C16.2772 2.46983 15.8609 1.9059 15.2833 1.55557C15.0019 1.39094 14.6905 1.28413 14.3673 1.24139C14.0441 1.19865 13.7156 1.22085 13.4011 1.30668C13.0768 1.38935 12.7723 1.53578 12.5052 1.73742C12.2381 1.93906 12.0139 2.19188 11.8455 2.48113C11.5116 3.05997 11.4167 3.74621 11.5808 4.39399C11.7449 5.04177 12.1552 5.59999 12.7244 5.95001C12.9029 6.06663 13.0966 6.15822 13.3 6.22224V9.17779C12.5165 9.28473 11.7681 9.57043 11.1127 10.0128C10.4572 10.4551 9.91228 11.0423 9.51999 11.7289C9.11409 12.4306 8.87368 13.2158 8.81707 14.0245C8.76046 14.8332 8.88914 15.6441 9.19332 16.3956L6.08221 18.1767C5.9731 18.0719 5.85609 17.9757 5.73221 17.8889C5.4474 17.7269 5.1334 17.6227 4.80823 17.5823C4.48305 17.5419 4.1531 17.5661 3.83731 17.6536C3.52152 17.741 3.2261 17.8899 2.96801 18.0918C2.70992 18.2937 2.49423 18.5446 2.33332 18.83C1.99734 19.4061 1.89875 20.0903 2.05845 20.7378C2.21814 21.3852 2.62357 21.9451 3.18888 22.2989C3.57635 22.5322 4.01992 22.6559 4.47221 22.6567C4.67701 22.6581 4.88107 22.632 5.07888 22.5789C5.72551 22.4121 6.27987 21.9962 6.62088 21.422C6.96188 20.8479 7.06182 20.1621 6.89888 19.5145V19.3822L9.91666 17.64C10.3211 18.1696 10.8194 18.6204 11.3867 18.97C12.474 19.6556 13.782 19.9006 15.0438 19.6549C16.3055 19.4092 17.426 18.6913 18.1767 17.6478L21.1555 19.3667C21.0151 19.8971 21.049 20.4587 21.252 20.9684C21.4551 21.4782 21.8166 21.9092 22.2833 22.1978C22.8486 22.5295 23.5225 22.6232 24.1569 22.4584C24.7912 22.2936 25.3343 21.8838 25.6667 21.3189C25.9908 20.7465 26.0827 20.0714 25.9235 19.4331C25.7643 18.7949 25.3661 18.2421 24.8111 17.8889ZM6.2611 7.77779C7.37538 6.46151 8.80781 5.45212 10.4222 4.84557C10.2659 4.32407 10.2209 3.77558 10.29 3.23557C8.26754 3.91175 6.46651 5.12409 5.07888 6.74335C4.9417 6.90012 4.87242 7.10496 4.88628 7.31282C4.90014 7.52067 4.996 7.71451 5.15277 7.85168C5.30954 7.98886 5.51438 8.05814 5.72224 8.04428C5.93009 8.03042 6.12393 7.93456 6.2611 7.77779Z" fill="#06AFE2"/>
<path d="M19.1878 5.62335C20.1452 6.19783 21.0018 6.92566 21.7233 7.77779C21.7897 7.85542 21.8708 7.91921 21.9618 7.96552C22.0529 8.01183 22.1521 8.03975 22.254 8.0477C22.3558 8.05564 22.4582 8.04345 22.5553 8.01182C22.6524 7.98019 22.7424 7.92974 22.82 7.86335C22.8976 7.79696 22.9614 7.71593 23.0077 7.62488C23.054 7.53384 23.082 7.43457 23.0899 7.33273C23.0979 7.2309 23.0857 7.12849 23.054 7.03137C23.0224 6.93425 22.972 6.84431 22.9056 6.76668C22.0749 5.78121 21.0867 4.94019 19.9811 4.27779C19.256 3.85618 18.4898 3.50957 17.6945 3.24335C17.7725 3.77955 17.7327 4.32633 17.5778 4.84557C18.1347 5.06057 18.6732 5.3207 19.1878 5.62335Z" fill="#06AFE2"/>
</g>
<defs>
<clipPath id="clip0_1_56">
<rect width="28" height="28" fill="white"/>
</clipPath>
</defs>
</svg>
