<svg width="15" height="20" viewBox="0 0 15 20" fill="none" xmlns="http://www.w3.org/2000/svg">
<g clip-path="url(#clip0_1_646)">
<path d="M5 2.5C5 1.80859 4.4414 1.25 3.75 1.25C3.05859 1.25 2.5 1.80859 2.5 2.5V8.34375L0.906247 8.79687C0.242185 8.98828 -0.140628 9.67969 0.0468721 10.3437C0.234372 11.0078 0.929685 11.3906 1.59375 11.2031L2.5 10.9414V17.5C2.5 18.1914 3.05859 18.75 3.75 18.75H13.75C14.4414 18.75 15 18.1914 15 17.5C15 16.8086 14.4414 16.25 13.75 16.25H5V10.2305L10.3437 8.70312C11.0078 8.51172 11.3906 7.82031 11.2031 7.15625C11.0156 6.49219 10.3203 6.10937 9.65625 6.29687L5 7.62891V2.5Z" fill="#06AFE2"/>
</g>
<defs>
<clipPath id="clip0_1_646">
<rect width="15" height="20" fill="white"/>
</clipPath>
</defs>
</svg>
