<svg width="29" height="28" viewBox="0 0 29 28" fill="none" xmlns="http://www.w3.org/2000/svg">
<path fill-rule="evenodd" clip-rule="evenodd" d="M15.0217 1.28982C14.6933 1.1256 14.3067 1.1256 13.9783 1.28982L4.64492 5.95649C4.24967 6.15411 4 6.55809 4 6.99999V14C4 17.1059 5.00396 19.7065 6.80343 21.8354C8.58414 23.9421 11.0988 25.5358 14.0583 26.7464C14.3413 26.8623 14.6587 26.8623 14.9417 26.7464C17.9012 25.5358 20.4158 23.9421 22.1966 21.8354C23.9961 19.7065 25 17.1059 25 14V6.99999C25 6.55809 24.7503 6.15411 24.3551 5.95649L15.0217 1.28982ZM6.33333 14V7.72103L14.5 3.63769L22.6667 7.72103V14C22.6667 16.5579 21.8558 18.6241 20.4145 20.3292C19.0338 21.9627 17.0341 23.3103 14.5 24.4015C11.9658 23.3103 9.96623 21.9627 8.58545 20.3292C7.14419 18.6241 6.33333 16.5579 6.33333 14ZM20.0501 11.2621C20.4709 10.7742 20.4166 10.0375 19.9287 9.61664C19.4409 9.19574 18.7042 9.25002 18.2833 9.73789L13.0565 15.7962L10.6503 13.4363C10.1902 12.9851 9.45159 12.9922 9.00041 13.4522C8.54924 13.9123 8.5564 14.6509 9.01641 15.102L12.3105 18.3329C12.5407 18.5586 12.8539 18.679 13.176 18.6656C13.4981 18.6522 13.8002 18.5061 14.0108 18.2621L20.0501 11.2621Z" fill="#06AFE2"/>
</svg>
