<svg width="18" height="18" viewBox="0 0 18 18" fill="none" xmlns="http://www.w3.org/2000/svg">
<g clip-path="url(#clip0_1_83)">
<path d="M15.4125 10.9877C14.778 10.6232 14.0587 10.5137 13.3485 10.4882C12.756 10.471 11.868 10.0825 11.868 8.99947C11.868 8.19547 12.519 7.54447 13.3567 7.51072C14.067 7.48522 14.7862 7.37572 15.4207 7.01122C16.2837 6.51246 16.9135 5.69175 17.1721 4.72917C17.4307 3.76659 17.2968 2.74075 16.8 1.87672C16.2967 1.01364 15.4721 0.384935 14.5066 0.128028C13.5411 -0.12888 12.5132 0.00691125 11.6475 0.505716C11.0751 0.834872 10.5999 1.30953 10.2701 1.88156C9.94025 2.4536 9.76755 3.10267 9.76948 3.76297C9.76948 4.49047 10.032 5.15872 10.362 5.78497C10.641 6.30922 10.7767 7.28197 9.82948 7.83247C9.11848 8.23747 8.23048 7.98397 7.79023 7.27372C7.41823 6.67297 6.96973 6.11497 6.33523 5.75122C5.9081 5.50391 5.43643 5.34317 4.94716 5.27819C4.4579 5.21321 3.96062 5.24526 3.48374 5.37251C3.00687 5.49976 2.55973 5.71971 2.16787 6.0198C1.77602 6.31989 1.44713 6.69424 1.19998 7.12147C0.703425 7.98552 0.569849 9.01125 0.828554 9.97366C1.08726 10.9361 1.71712 11.7566 2.57998 12.2552C3.15139 12.5836 3.79892 12.7565 4.45798 12.7565C5.11704 12.7565 5.76458 12.5836 6.33598 12.2552C6.97048 11.8915 7.41898 11.3327 7.79098 10.7327C8.09548 10.2422 8.86573 9.61597 9.82948 10.1747C10.5405 10.5805 10.7602 11.4775 10.3627 12.2222C10.0327 12.8395 9.77023 13.516 9.77023 14.2435C9.77063 15.2394 10.1664 16.1945 10.8705 16.8989C11.5746 17.6033 12.5295 17.9994 13.5255 18.0002C14.5215 17.9996 15.4765 17.6037 16.1807 16.8995C16.885 16.1952 17.2809 15.2402 17.2815 14.2442C17.2852 13.5846 17.1142 12.9358 16.7859 12.3637C16.4577 11.7916 15.9838 11.3174 15.4125 10.9877Z" fill="#06AFE2"/>
</g>
<defs>
<clipPath id="clip0_1_83">
<rect width="18" height="18" fill="white"/>
</clipPath>
</defs>
</svg>
