<svg width="28" height="28" viewBox="0 0 28 28" fill="none" xmlns="http://www.w3.org/2000/svg">
<g clip-path="url(#clip0_1_1084)">
<path fill-rule="evenodd" clip-rule="evenodd" d="M23.0732 5.16829C23.3615 5.04695 23.677 5.0051 23.987 5.0471C24.297 5.08909 24.59 5.21341 24.8356 5.40709C25.0813 5.60078 25.2705 5.85676 25.3836 6.14839C25.4967 6.44002 25.5296 6.75664 25.4788 7.06529L22.8328 23.1151C22.5762 24.6633 20.8775 25.5511 19.4577 24.78C18.27 24.1348 16.506 23.1408 14.9193 22.1036C14.126 21.5845 11.6958 19.922 11.9945 18.739C12.2512 17.7275 16.3345 13.9265 18.6678 11.6666C19.5837 10.7788 19.166 10.2666 18.0845 11.0833C15.3977 13.111 11.0868 16.1945 9.66117 17.0625C8.4035 17.8278 7.74784 17.9585 6.96384 17.8278C5.5335 17.5898 4.207 17.2211 3.12434 16.772C1.66134 16.1653 1.7325 14.154 3.12317 13.5683L23.0732 5.16829Z" fill="white"/>
</g>
<defs>
<clipPath id="clip0_1_1084">
<rect width="28" height="28" fill="white"/>
</clipPath>
</defs>
</svg>
