<svg width="40" height="40" viewBox="0 0 40 40" fill="none" xmlns="http://www.w3.org/2000/svg">
<circle cx="20" cy="20" r="20" fill="#1B1D27"/>
<path d="M32.2033 12.9998C31.305 13.4082 30.3367 13.6765 29.3333 13.8048C30.36 13.1865 31.1533 12.2065 31.5267 11.0282C30.5583 11.6115 29.485 12.0198 28.3533 12.2532C27.4317 11.2498 26.1367 10.6665 24.6667 10.6665C21.925 10.6665 19.685 12.9065 19.685 15.6715C19.685 16.0682 19.7317 16.4532 19.8133 16.8148C15.66 16.6048 11.9617 14.6098 9.49999 11.5882C9.06833 12.3232 8.82333 13.1865 8.82333 14.0965C8.82333 15.8348 9.69833 17.3748 11.0517 18.2498C10.2233 18.2498 9.45333 18.0165 8.77666 17.6665V17.7015C8.77666 20.1282 10.5033 22.1582 12.79 22.6132C12.0558 22.8141 11.2851 22.842 10.5383 22.6948C10.8552 23.6894 11.4758 24.5596 12.3128 25.1833C13.1499 25.8069 14.1613 26.1525 15.205 26.1715C13.4359 27.572 11.243 28.329 8.98666 28.3182C8.58999 28.3182 8.19333 28.2948 7.79666 28.2482C10.0133 29.6715 12.65 30.4998 15.4733 30.4998C24.6667 30.4998 29.7183 22.8698 29.7183 16.2548C29.7183 16.0332 29.7183 15.8232 29.7067 15.6015C30.6867 14.9015 31.5267 14.0148 32.2033 12.9998Z" fill="white"/>
</svg>
